<?xml version="1.0" standalone="no"?>
<!DOCTYPE svg PUBLIC "-//W3C//DTD SVG 20010904//EN"
 "http://www.w3.org/TR/2001/REC-SVG-20010904/DTD/svg10.dtd">
<svg version="1.0" xmlns="http://www.w3.org/2000/svg"
 width="1224.000000pt" height="891.000000pt" viewBox="0 0 1224.000000 891.000000"
 preserveAspectRatio="xMidYMid meet">

<g transform="translate(0.000000,891.000000) scale(0.100000,-0.100000)"
fill="#000000" stroke="none">
<path d="M4640 8903 c-73 -6 -210 -32 -279 -54 -144 -46 -259 -127 -301 -213
-25 -53 -27 -181 -4 -317 17 -102 33 -145 34 -94 1 39 31 104 61 132 13 12 47
32 74 45 48 22 62 23 329 26 154 2 290 1 302 -2 31 -8 40 -42 19 -66 -15 -17
-39 -19 -288 -22 -257 -3 -274 -4 -313 -25 -73 -39 -71 -48 9 -49 55 0 83 -6
117 -23 97 -51 130 -92 130 -164 0 -36 -25 -114 -99 -315 -106 -286 -239 -658
-318 -889 l-48 -143 -92 0 c-130 0 -171 20 -216 105 -22 40 -22 48 -28 735 -5
676 -6 697 -27 775 -61 223 -196 363 -394 410 -260 61 -603 -67 -1090 -408
-916 -641 -1707 -1671 -2045 -2662 -29 -87 -73 -242 -73 -259 0 -3 51 34 113
82 61 49 537 419 1057 822 520 404 1098 853 1285 998 l340 264 6 -598 c6 -643
9 -678 63 -865 49 -167 124 -323 223 -462 74 -103 226 -256 331 -332 45 -32
82 -62 82 -65 0 -3 -25 -91 -55 -195 -371 -1267 -728 -2768 -922 -3875 l-38
-215 -302 -156 c-166 -85 -314 -166 -328 -179 -61 -58 -54 -161 17 -232 53
-53 70 -51 50 6 -26 71 -17 78 234 183 120 51 220 90 222 88 2 -2 -57 -82
-132 -177 -75 -95 -141 -189 -147 -210 -16 -50 -4 -102 33 -144 39 -44 77 -64
123 -64 l37 0 -31 31 c-54 53 -46 73 81 212 186 204 248 269 248 263 0 -3 -31
-95 -70 -205 -76 -214 -83 -262 -50 -315 36 -59 137 -98 195 -76 l29 11 -39
22 c-66 37 -65 53 4 210 34 76 76 162 95 190 43 68 106 124 153 136 123 32
385 39 445 11 39 -18 54 -61 39 -111 -7 -23 -10 -43 -7 -46 3 -3 25 14 50 38
65 66 81 139 47 215 -24 54 -77 95 -177 140 l-82 36 201 161 c548 436 995 827
1389 1216 l207 204 198 -195 c391 -387 835 -775 1396 -1222 108 -86 197 -159
197 -162 0 -3 -37 -22 -82 -43 -46 -21 -98 -51 -117 -67 -40 -34 -70 -95 -71
-145 0 -48 44 -133 83 -158 17 -11 32 -19 34 -18 1 2 -3 22 -9 45 -13 52 2 94
40 112 60 28 322 21 446 -11 75 -20 131 -87 211 -254 97 -203 100 -211 87
-240 -6 -13 -28 -33 -49 -44 l-38 -19 30 -12 c38 -14 88 -5 141 25 46 27 74
75 74 127 0 18 -32 125 -70 237 -39 112 -69 205 -68 206 2 2 83 -84 181 -191
198 -217 203 -227 146 -283 l-31 -31 37 0 c62 0 131 51 155 115 26 67 9 103
-142 296 -77 99 -138 182 -136 184 2 3 103 -37 223 -88 144 -61 223 -100 233
-115 13 -19 13 -27 0 -67 -9 -25 -13 -45 -11 -45 16 0 65 35 81 57 51 71 48
165 -5 215 -16 14 -162 94 -325 178 -164 83 -300 155 -302 159 -3 4 -30 142
-60 306 -146 792 -271 1364 -497 2280 -180 728 -418 1685 -424 1706 -4 11 17
32 66 69 228 170 423 439 513 711 76 230 85 337 86 1017 0 281 2 512 4 512 3
0 452 -347 998 -772 1712 -1330 1789 -1390 1794 -1386 6 7 -50 199 -90 311
-313 865 -960 1756 -1722 2373 -440 357 -828 581 -1107 638 -215 45 -416 -9
-541 -145 -63 -68 -107 -152 -138 -264 -21 -78 -22 -99 -27 -775 -6 -687 -6
-695 -28 -735 -39 -73 -89 -105 -163 -105 -38 0 -39 0 -55 58 -130 460 -390
1311 -430 1412 -176 433 -435 649 -840 699 -84 10 -251 12 -355 4z m140 -108
c37 -19 60 -62 60 -111 0 -28 -8 -44 -34 -70 -28 -28 -41 -34 -78 -34 -50 0
-82 18 -103 60 -19 37 -19 64 1 105 27 57 97 79 154 50z m-63 -1794 c48 -24
104 -11 156 37 l27 26 0 -70 c0 -86 -27 -140 -84 -168 -32 -16 -44 -17 -77 -7
-69 21 -117 117 -102 205 l6 37 26 -24 c14 -14 36 -30 48 -36z m700 0 c45 -23
119 -7 152 33 24 28 31 17 31 -46 0 -80 -29 -135 -84 -162 -32 -16 -44 -17
-77 -7 -69 21 -116 118 -102 208 l6 34 26 -24 c14 -14 36 -30 48 -36z m-1788
-600 c17 -16 46 -32 65 -35 41 -8 110 17 131 47 20 28 27 17 27 -41 0 -70 -18
-116 -58 -152 -83 -72 -196 -6 -205 120 -2 38 1 90 5 90 2 0 18 -13 35 -29z
m700 0 c17 -16 46 -32 65 -35 41 -8 110 17 131 47 20 28 27 17 27 -41 0 -70
-18 -116 -58 -152 -84 -74 -196 -6 -205 125 -3 39 0 85 5 85 2 0 18 -13 35
-29z m700 0 c17 -16 46 -32 65 -35 41 -8 110 17 131 47 20 28 26 18 27 -41 0
-70 -17 -116 -58 -152 -81 -71 -197 -7 -205 115 -3 47 -1 95 5 95 2 0 18 -13
35 -29z m700 0 c43 -40 90 -47 146 -22 25 11 48 27 51 35 13 34 24 13 24 -44
0 -74 -17 -117 -59 -153 -78 -65 -182 -8 -205 112 -5 30 1 101 9 101 2 0 17
-13 34 -29z m700 0 c17 -16 46 -32 65 -35 41 -8 112 17 127 45 18 35 29 20 29
-41 0 -74 -17 -117 -59 -153 -79 -66 -185 -6 -204 117 -5 33 0 96 8 96 2 0 17
-13 34 -29z m-2377 -658 c46 -5 92 11 117 41 24 28 31 17 31 -46 0 -80 -29
-135 -84 -162 -32 -16 -44 -17 -77 -7 -69 21 -116 118 -102 208 l6 34 33 -32
c23 -22 45 -33 76 -36z m700 0 c46 -5 92 11 117 41 24 28 31 17 31 -46 0 -80
-29 -135 -84 -162 -32 -16 -44 -17 -77 -7 -69 21 -117 117 -102 205 l6 37 33
-32 c23 -22 45 -33 76 -36z m700 0 c46 -5 92 11 117 41 24 28 31 17 31 -46 0
-80 -29 -135 -84 -162 -32 -16 -44 -17 -77 -7 -69 21 -117 117 -102 205 l6 37
33 -32 c23 -22 45 -33 76 -36z m700 0 c46 -5 92 11 117 41 24 28 31 17 31 -46
0 -80 -29 -135 -84 -162 -32 -16 -44 -17 -77 -7 -69 21 -117 117 -102 205 l6
37 33 -32 c23 -22 45 -33 76 -36z m-1823 -592 c54 -50 128 -50 183 1 17 16 33
26 36 24 9 -10 4 -104 -7 -139 -18 -53 -72 -97 -121 -97 -67 0 -125 65 -131
145 -3 47 -1 95 5 95 2 0 18 -13 35 -29z m700 0 c17 -16 46 -32 65 -35 41 -8
110 17 131 47 20 28 26 18 27 -41 0 -70 -17 -116 -58 -152 -81 -71 -197 -7
-205 115 -3 47 -1 95 5 95 2 0 18 -13 35 -29z m700 0 c43 -40 90 -47 146 -22
25 11 48 27 51 35 13 34 24 13 24 -44 0 -74 -17 -117 -59 -153 -80 -67 -194 0
-202 118 -3 47 -1 95 5 95 2 0 18 -13 35 -29z m-1659 -656 c50 0 63 4 87 28
16 15 32 27 36 27 4 0 7 -27 7 -60 0 -74 -27 -132 -73 -160 -38 -24 -68 -25
-107 -5 -58 30 -96 123 -83 202 l6 34 34 -33 c31 -30 40 -33 93 -33z m682 -2
c46 -5 92 11 117 41 24 28 31 17 31 -44 0 -74 -27 -132 -73 -160 -38 -24 -68
-25 -107 -5 -58 30 -96 123 -83 202 l6 34 33 -32 c23 -22 45 -33 76 -36z m700
0 c46 -5 92 11 117 41 24 28 31 17 31 -44 0 -206 -215 -246 -259 -48 -6 24 -8
61 -4 82 l6 37 33 -32 c23 -22 45 -33 76 -36z m700 0 c46 -5 92 11 117 41 24
28 31 17 31 -44 0 -204 -207 -246 -259 -53 -6 23 -8 60 -5 83 l7 41 33 -32
c23 -22 45 -33 76 -36z m-2523 -592 c54 -50 128 -50 183 1 17 16 33 27 35 24
9 -9 4 -107 -7 -140 -17 -52 -72 -96 -120 -96 -67 0 -125 66 -131 150 -2 38 1
90 5 90 2 0 18 -13 35 -29z m700 0 c17 -16 46 -32 65 -35 41 -8 110 17 131 47
20 28 26 18 27 -41 0 -70 -17 -116 -58 -152 -81 -71 -197 -7 -205 115 -3 47
-1 95 5 95 2 0 18 -13 35 -29z m700 0 c17 -16 46 -32 65 -35 41 -8 110 17 131
47 20 28 26 18 27 -41 0 -70 -17 -116 -58 -152 -81 -71 -197 -7 -205 115 -3
47 -1 95 5 95 2 0 18 -13 35 -29z m700 0 c43 -40 90 -47 146 -22 25 11 48 27
51 35 13 34 24 13 24 -44 0 -74 -17 -117 -59 -153 -79 -66 -185 -6 -204 117
-5 33 0 96 8 96 2 0 17 -13 34 -29z m688 10 c7 -10 32 -27 57 -36 44 -17 48
-17 91 0 25 9 50 25 55 36 19 35 30 20 30 -41 0 -74 -17 -117 -59 -153 -98
-82 -233 41 -204 184 6 34 14 36 30 10z m-2347 -666 c50 0 63 4 87 28 16 15
32 27 36 27 17 0 6 -122 -13 -161 -22 -43 -71 -79 -108 -79 -83 0 -147 102
-134 213 l4 39 35 -34 c31 -30 40 -33 93 -33z m673 -2 c48 -7 79 1 117 33 17
15 33 24 36 21 3 -3 5 -30 5 -60 0 -93 -61 -177 -129 -177 -34 0 -77 26 -101
59 -25 35 -41 111 -34 158 l6 34 32 -31 c18 -18 47 -33 68 -37z m709 0 c46 -5
92 11 117 41 24 28 31 17 31 -44 0 -206 -215 -246 -259 -48 -6 24 -8 61 -4 82
l6 37 33 -32 c23 -22 45 -33 76 -36z m700 0 c46 -5 92 11 117 41 24 28 31 17
31 -44 0 -204 -207 -246 -259 -53 -6 23 -8 60 -5 83 l7 41 33 -32 c23 -22 45
-33 76 -36z m-2523 -592 c54 -50 128 -50 183 1 17 16 33 27 35 24 11 -11 3
-128 -11 -154 -42 -81 -126 -106 -186 -56 -51 44 -64 82 -61 182 1 17 3 32 5
32 2 0 18 -13 35 -29z m700 0 c54 -50 128 -50 183 1 17 16 33 27 35 24 9 -9 4
-107 -7 -140 -17 -52 -72 -96 -120 -96 -67 0 -125 65 -131 145 -3 47 -1 95 5
95 2 0 18 -13 35 -29z m1393 4 c30 -38 91 -50 145 -30 24 10 49 26 56 36 20
32 27 21 27 -41 0 -74 -17 -117 -59 -153 -98 -82 -233 41 -204 184 7 35 10 36
35 4z m707 -4 c43 -40 90 -47 146 -22 25 11 48 27 51 35 13 34 24 13 24 -44 0
-74 -17 -117 -59 -153 -79 -66 -185 -6 -204 117 -5 33 0 96 8 96 2 0 17 -13
34 -29z m-3229 -646 c58 -30 145 -11 171 37 12 22 12 22 20 3 39 -100 -50
-246 -140 -231 -43 7 -98 59 -111 106 -11 40 -13 100 -4 125 6 14 8 13 21 -5
8 -11 27 -27 43 -35z m700 0 c58 -30 136 -12 174 40 13 18 14 17 21 -14 24
-109 -56 -230 -144 -217 -44 7 -95 56 -110 105 -12 42 -15 100 -5 126 6 14 8
13 21 -5 8 -11 27 -27 43 -35z m2310 0 c57 -30 159 -6 177 41 10 26 23 -5 23
-56 0 -53 -27 -115 -64 -150 -21 -19 -39 -25 -71 -25 -51 0 -88 28 -116 90
-18 40 -25 109 -13 140 6 14 8 13 21 -5 8 -11 27 -27 43 -35z m700 0 c57 -30
159 -6 177 41 10 26 23 -5 23 -56 0 -53 -27 -115 -64 -150 -42 -39 -104 -35
-149 8 -47 46 -72 141 -51 197 6 14 8 13 21 -5 8 -11 27 -27 43 -35z"/>
<path d="M1965 6618 c-434 -346 -1054 -839 -1378 -1096 l-587 -466 27 -23
c102 -86 242 -161 360 -195 62 -17 103 -22 203 -21 153 0 241 21 385 93 90 44
174 109 820 627 396 318 780 625 853 683 l132 105 -6 80 c-4 44 -10 251 -13
461 l-6 381 -790 -629z"/>
<path d="M7470 6846 c0 -221 -2 -430 -5 -462 l-6 -59 228 -181 c125 -100 509
-407 853 -683 556 -446 636 -507 725 -551 145 -72 232 -93 385 -93 196 0 337
49 513 178 64 47 76 60 65 70 -7 7 -398 318 -868 692 -470 373 -1085 862
-1367 1086 -281 224 -514 407 -517 407 -3 0 -6 -182 -6 -404z"/>
<path d="M11110 5090 l0 -1920 485 0 485 0 0 1920 0 1920 -485 0 -485 0 0
-1920z"/>
<path d="M2464 5879 c-400 -333 -1424 -1180 -2021 -1673 -233 -192 -423 -352
-423 -356 0 -17 131 -104 225 -150 212 -102 395 -114 617 -40 121 41 203 91
350 213 124 103 1868 1595 1900 1626 17 15 14 21 -40 97 -107 151 -190 320
-237 484 -10 36 -21 69 -25 73 -4 4 -159 -119 -346 -274z"/>
<path d="M7426 6148 c-87 -276 -151 -409 -273 -572 -37 -48 -42 -61 -31 -71
49 -46 1768 -1516 1967 -1683 90 -75 217 -142 337 -178 74 -22 110 -26 209
-27 147 -1 222 16 360 83 95 46 225 133 225 150 0 4 -386 327 -857 716 -472
389 -1094 904 -1383 1144 -289 240 -531 440 -538 444 -7 4 -14 2 -16 -6z"/>
<path d="M1747 4126 c-802 -716 -1459 -1305 -1460 -1311 -4 -37 251 -173 373
-200 105 -23 255 -21 355 5 97 25 240 94 316 152 31 24 473 423 983 887 910
830 927 846 941 895 8 28 53 186 100 352 47 165 85 304 85 310 -1 5 -22 25
-48 45 -26 20 -78 66 -117 101 l-70 65 -1458 -1301z"/>
<path d="M6975 5372 c-33 -32 -80 -74 -104 -94 l-44 -37 94 -375 94 -375 934
-851 c514 -468 961 -870 994 -892 246 -167 542 -196 797 -77 68 31 220 129
220 140 0 6 -1544 1387 -2620 2343 -129 115 -251 224 -270 242 l-35 33 -60
-57z"/>
<path d="M1915 3064 c-682 -634 -1241 -1157 -1243 -1162 -5 -16 238 -131 323
-153 111 -29 299 -29 407 -1 92 25 206 76 285 129 80 53 1163 1059 1163 1080
0 20 146 617 231 947 44 169 79 309 77 311 -2 2 -561 -516 -1243 -1151z"/>
<path d="M7083 4205 c9 -32 263 -1062 288 -1167 l23 -96 400 -375 c768 -717
741 -694 892 -763 172 -80 368 -100 549 -56 85 21 335 133 335 151 0 4 -532
502 -1181 1106 -1441 1341 -1313 1223 -1306 1200z"/>
<path d="M7454 2675 c13 -45 139 -641 195 -927 l60 -307 113 -109 c131 -127
167 -157 228 -199 234 -158 511 -186 750 -76 93 42 191 105 188 119 -3 9
-1162 1154 -1442 1424 -54 52 -96 86 -92 75z"/>
<path d="M2400 2313 c-206 -202 -551 -542 -767 -754 l-392 -388 54 -36 c70
-46 153 -87 235 -116 56 -20 85 -23 205 -24 120 0 151 3 215 23 162 51 262
117 443 290 l132 127 81 405 c45 223 103 499 128 614 26 115 45 213 44 218 -2
5 -172 -156 -378 -359z"/>
<path d="M4870 2004 c-96 -91 -217 -202 -267 -247 l-93 -82 0 -621 c0 -690 0
-685 66 -762 53 -63 124 -96 204 -96 113 0 199 56 247 160 l23 51 -2 881 -3
881 -175 -165z"/>
<path d="M5190 1288 l0 -883 24 -50 c84 -180 316 -215 446 -67 71 80 70 70 70
766 l-1 621 -162 147 c-89 81 -210 193 -269 249 l-108 101 0 -884z"/>
<path d="M4200 1404 c-96 -83 -215 -184 -265 -225 l-90 -75 0 -365 c0 -405 -1
-400 71 -478 125 -139 351 -107 434 62 l30 62 -2 584 -3 584 -175 -149z"/>
<path d="M5862 958 c3 -563 4 -595 22 -632 47 -95 140 -151 246 -150 107 2
187 51 238 148 l27 51 0 364 0 365 -100 84 c-55 46 -172 146 -260 221 -88 75
-163 138 -168 139 -4 2 -6 -263 -5 -590z"/>
</g>
</svg>
